<?xml version="1.0" encoding="utf-8"?>
<!-- Generator: Adobe Illustrator 19.2.0, SVG Export Plug-In . SVG Version: 6.00 Build 0)  -->
<svg version="1.1" id="Calque_1" xmlns="http://www.w3.org/2000/svg" xmlns:xlink="http://www.w3.org/1999/xlink" x="0px" y="0px"
	 viewBox="0 0 120 120" style="enable-background:new 0 0 120 120;" xml:space="preserve">
<style type="text/css">
	.st0{fill:url(#SVGID_1_);}
	.st1{fill:#1D1D1B;stroke:#1D1D1B;stroke-width:0.1507;stroke-miterlimit:4.5666;}
	.st2{fill:#1D1D1B;stroke:#1D1D1B;stroke-width:0.7;stroke-miterlimit:4.5666;}
	.st3{fill:#1D1D1B;stroke:#1D1D1B;stroke-width:1.2;stroke-miterlimit:4.5666;}
	.st4{fill:#1D1D1B;}
</style>
<linearGradient id="SVGID_1_" gradientUnits="userSpaceOnUse" x1="60" y1="119.9999" x2="60" y2="-2.694833e-09">
	<stop  offset="0.171" style="stop-color:#E5372B"/>
	<stop  offset="0.7763" style="stop-color:#E64274"/>
</linearGradient>
<rect class="st0" width="120" height="120"/>
<g>
	<path class="st1" d="M47,107L21.1,83.8v22.5h-7.3v-40L39.7,90V67.1H47V107z"/>
	<polygon class="st2" points="70.5,74.9 70.5,78 49.6,78 49.6,82.7 75.1,82.7 75.1,72.7 	"/>
	<path class="st3" d="M49.5,96.1c0-1.6,0.3-3.1,1-4.4c0.7-1.4,1.6-2.5,2.9-3.5c1.2-0.9,2.5-1.6,4-2.1c1.5-0.5,3.1-0.7,4.9-0.7
		c1.9,0,3.6,0.3,5.2,0.8c1.6,0.5,2.9,1.3,4,2.2c1.1,0.9,2,2.1,2.6,3.4c0.6,1.3,0.9,2.8,0.9,4.3c0,1.6-0.3,3-1,4.3
		c-0.6,1.3-1.5,2.4-2.7,3.4c-1.1,1-2.5,1.7-4,2.2c-1.6,0.5-3.3,0.8-5.1,0.8c-1.7,0-3.3-0.2-4.9-0.7c-1.5-0.5-2.9-1.2-4-2.1
		c-1.3-1-2.3-2.2-2.9-3.5C49.8,99.1,49.5,97.7,49.5,96.1z M70.6,96.1c0-0.7-0.2-1.4-0.5-2.1c-0.3-0.7-0.8-1.4-1.5-2
		c-0.7-0.6-1.5-1.1-2.6-1.4c-1.1-0.4-2.3-0.6-3.8-0.6c-1,0-2,0.1-3,0.4c-1,0.2-1.9,0.6-2.7,1.1c-0.8,0.5-1.4,1.1-2,1.9
		c-0.5,0.8-0.8,1.7-0.8,2.7c0,0.7,0.2,1.4,0.5,2.2c0.4,0.7,0.9,1.4,1.6,2c0.7,0.6,1.6,1,2.6,1.4c1,0.3,2.3,0.5,3.6,0.5
		c1.1,0,2.3-0.1,3.4-0.4c1.1-0.3,2.1-0.7,2.8-1.3C69.9,99.4,70.6,97.9,70.6,96.1z"/>
	<g>
		<g>
			<path class="st4" d="M53.4,75.3c-0.6,0-1.1-0.1-1.6-0.3c-0.5-0.2-0.9-0.5-1.3-0.9c-0.4-0.4-0.7-0.8-0.9-1.3
				c-0.2-0.5-0.3-1.1-0.3-1.6c0-0.6,0.1-1.1,0.3-1.6c0.2-0.5,0.5-1,0.9-1.3c0.4-0.4,0.8-0.7,1.3-0.9c0.5-0.2,1-0.3,1.6-0.3
				c0.6,0,1.1,0.1,1.6,0.3c0.5,0.2,0.9,0.5,1.3,0.9c0.4,0.4,0.7,0.8,0.9,1.3c0.2,0.5,0.3,1.1,0.3,1.6c0,0.6-0.1,1.1-0.3,1.6
				c-0.2,0.5-0.5,1-0.9,1.3c-0.4,0.4-0.8,0.7-1.3,0.9C54.5,75.1,54,75.3,53.4,75.3z M53.4,69.8c-0.4,0-0.7,0.1-0.9,0.4
				c-0.3,0.3-0.4,0.6-0.4,0.9s0.1,0.7,0.4,0.9c0.3,0.3,0.6,0.4,0.9,0.4c0.4,0,0.6-0.1,0.9-0.4c0.3-0.3,0.4-0.6,0.4-0.9
				s-0.1-0.7-0.4-0.9C54.1,69.9,53.8,69.8,53.4,69.8z"/>
			<path class="st4" d="M53.4,67.1c0.5,0,1,0.1,1.5,0.3c0.5,0.2,0.9,0.5,1.2,0.9c0.3,0.4,0.6,0.8,0.8,1.3c0.2,0.5,0.3,1,0.3,1.5
				c0,0.5-0.1,1.1-0.3,1.6c-0.2,0.5-0.5,0.9-0.8,1.3c-0.3,0.4-0.8,0.6-1.2,0.8c-0.5,0.2-1,0.3-1.5,0.3s-1-0.1-1.5-0.3
				c-0.5-0.2-0.9-0.5-1.2-0.8c-0.3-0.4-0.6-0.8-0.8-1.3c-0.2-0.5-0.3-1-0.3-1.6c0-0.5,0.1-1.1,0.3-1.5c0.2-0.5,0.5-0.9,0.8-1.3
				c0.3-0.4,0.8-0.7,1.2-0.9C52.4,67.2,52.9,67.1,53.4,67.1 M53.4,72.6c0.4,0,0.8-0.1,1-0.4c0.3-0.3,0.4-0.6,0.4-1.1
				c0-0.4-0.1-0.8-0.4-1.1c-0.3-0.3-0.6-0.4-1-0.4s-0.8,0.1-1.1,0.4c-0.3,0.3-0.4,0.7-0.4,1.1c0,0.4,0.1,0.8,0.4,1.1
				C52.7,72.4,53,72.6,53.4,72.6 M53.4,66.7c-0.6,0-1.1,0.1-1.7,0.3c-0.5,0.2-1,0.6-1.4,1c-0.4,0.4-0.7,0.9-0.9,1.4
				c-0.2,0.5-0.3,1.1-0.3,1.7c0,0.6,0.1,1.2,0.3,1.7c0.2,0.5,0.5,1,0.9,1.4c0.4,0.4,0.8,0.7,1.4,0.9c0.5,0.2,1.1,0.3,1.7,0.3
				c0.6,0,1.1-0.1,1.7-0.3c0.5-0.2,1-0.5,1.3-0.9c0.4-0.4,0.7-0.9,0.9-1.4c0.2-0.5,0.3-1.1,0.3-1.7c0-0.6-0.1-1.2-0.3-1.7
				c-0.2-0.5-0.5-1-0.9-1.4c-0.4-0.4-0.8-0.7-1.4-1C54.6,66.8,54,66.7,53.4,66.7L53.4,66.7z M53.4,72.2c-0.3,0-0.6-0.1-0.8-0.3
				c-0.2-0.2-0.3-0.5-0.3-0.8c0-0.3,0.1-0.6,0.3-0.8c0.2-0.2,0.5-0.3,0.8-0.3c0.3,0,0.5,0.1,0.8,0.3c0.2,0.2,0.3,0.5,0.3,0.8
				c0,0.3-0.1,0.6-0.3,0.8C54,72.1,53.7,72.2,53.4,72.2L53.4,72.2z"/>
		</g>
	</g>
</g>
</svg>
