<?xml version="1.0" encoding="utf-8"?>
<!-- Generator: Adobe Illustrator 19.2.0, SVG Export Plug-In . SVG Version: 6.00 Build 0)  -->
<svg version="1.1" id="Calque_1" xmlns="http://www.w3.org/2000/svg" xmlns:xlink="http://www.w3.org/1999/xlink" x="0px" y="0px"
	 viewBox="0 0 120 120" style="enable-background:new 0 0 120 120;" xml:space="preserve">
<style type="text/css">
	.st0{fill:url(#SVGID_1_);}
	.st1{fill:#FFFFFF;}
	.st2{fill:#1D1D1B;stroke:#1D1D1B;stroke-width:0.1507;stroke-miterlimit:4.5666;}
	.st3{fill:#1D1D1B;stroke:#1D1D1B;stroke-width:0.7;stroke-miterlimit:4.5666;}
	.st4{fill:#1D1D1B;stroke:#1D1D1B;stroke-width:1.2;stroke-miterlimit:4.5666;}
	.st5{fill:#1D1D1B;}
</style>
<linearGradient id="SVGID_1_" gradientUnits="userSpaceOnUse" x1="60.0944" y1="120.0944" x2="60.0944" y2="9.440677e-02">
	<stop  offset="0.171" style="stop-color:#E5372B"/>
	<stop  offset="0.7763" style="stop-color:#E64274"/>
</linearGradient>
<rect x="0.1" y="0.1" class="st0" width="120" height="120"/>
<g>
	<polygon class="st1" points="25.4,90.3 21.5,95.9 17.6,90.3 13.7,90.3 19.6,98.3 13.8,106.2 17.7,106.2 21.5,100.7 25.3,106.2 
		29.2,106.2 23.4,98.3 29.3,90.3 	"/>
	<polygon class="st1" points="30.7,93.1 35.1,93.1 35.1,106.2 38.2,106.2 38.2,93.1 42.6,93.1 42.6,90.2 30.7,90.2 	"/>
	<polygon class="st1" points="54.9,99.4 44.5,90.3 44.5,90.3 44.5,106.2 47.6,106.2 47.6,97.2 58,106.2 58,90.3 54.9,90.3 	"/>
	<path class="st1" d="M74.6,94.8c-0.4-1-1-1.9-1.7-2.6c-1.4-1.3-3.3-2-5.5-2h-6.1v15.9h6.1c1.1,0,2.1-0.2,3-0.5
		c0.9-0.3,1.7-0.8,2.4-1.5c0.8-0.7,1.3-1.6,1.7-2.6c0.4-1,0.6-2.1,0.6-3.4C75.2,97,75,95.8,74.6,94.8z M72.1,98.2
		c0,1.1-0.1,2-0.4,2.6c-0.3,0.7-0.7,1.2-1.1,1.6c-0.4,0.4-0.9,0.6-1.5,0.7c-0.5,0.1-1.1,0.2-1.6,0.2h-3V93.1h3
		c0.5,0,1.1,0.1,1.6,0.2c0.5,0.1,1,0.4,1.5,0.7c0.4,0.4,0.8,0.9,1.1,1.6C72,96.3,72.1,97.2,72.1,98.2z"/>
</g>
<g>
	<path class="st2" d="M47.1,88.1L21.1,64.8l0,22.5h-7.3l0-40L39.8,71V48.1h7.3L47.1,88.1z"/>
	<polygon class="st3" points="70.6,56 70.6,59.1 49.6,59.1 49.6,63.8 75.2,63.8 75.2,53.7 	"/>
	<path class="st4" d="M49.6,77.2c0-1.6,0.3-3.1,1-4.4c0.7-1.4,1.6-2.5,2.9-3.5c1.2-0.9,2.5-1.6,4-2.1c1.5-0.5,3.1-0.7,4.9-0.7
		c1.9,0,3.6,0.3,5.2,0.8c1.6,0.5,2.9,1.3,4,2.2c1.1,0.9,2,2.1,2.6,3.4c0.6,1.3,0.9,2.8,0.9,4.3c0,1.6-0.3,3-1,4.3
		c-0.6,1.3-1.5,2.4-2.7,3.4c-1.1,1-2.5,1.7-4,2.2c-1.6,0.5-3.3,0.8-5.1,0.8c-1.7,0-3.3-0.2-4.9-0.7c-1.5-0.5-2.9-1.2-4-2.1
		c-1.3-1-2.3-2.2-2.9-3.5C49.9,80.2,49.6,78.7,49.6,77.2z M70.7,77.2c0-0.7-0.2-1.4-0.5-2.1c-0.3-0.7-0.8-1.4-1.5-2
		c-0.7-0.6-1.5-1.1-2.6-1.4c-1.1-0.4-2.3-0.6-3.8-0.6c-1,0-2,0.1-3,0.4c-1,0.2-1.9,0.6-2.7,1.1c-0.8,0.5-1.4,1.1-2,1.9
		c-0.5,0.8-0.8,1.7-0.8,2.7c0,0.7,0.2,1.4,0.5,2.2c0.4,0.7,0.9,1.4,1.6,2c0.7,0.6,1.6,1,2.6,1.4c1,0.3,2.3,0.5,3.6,0.5
		c1.1,0,2.3-0.1,3.4-0.4c1.1-0.3,2.1-0.7,2.8-1.3C70,80.4,70.7,79,70.7,77.2z"/>
	<g>
		<g>
			<path class="st5" d="M53.5,56.3c-0.6,0-1.1-0.1-1.6-0.3s-0.9-0.5-1.3-0.9c-0.4-0.4-0.7-0.8-0.9-1.3c-0.2-0.5-0.3-1.1-0.3-1.6
				c0-0.6,0.1-1.1,0.3-1.6c0.2-0.5,0.5-1,0.9-1.3c0.4-0.4,0.8-0.7,1.3-0.9c0.5-0.2,1-0.3,1.6-0.3s1.1,0.1,1.6,0.3
				c0.5,0.2,0.9,0.5,1.3,0.9c0.4,0.4,0.7,0.8,0.9,1.3c0.2,0.5,0.3,1.1,0.3,1.6c0,0.6-0.1,1.1-0.3,1.6c-0.2,0.5-0.5,1-0.9,1.3
				s-0.8,0.7-1.3,0.9C54.6,56.2,54.1,56.3,53.5,56.3z M53.5,50.8c-0.4,0-0.7,0.1-0.9,0.4c-0.3,0.3-0.4,0.6-0.4,0.9s0.1,0.7,0.4,0.9
				c0.3,0.3,0.6,0.4,0.9,0.4c0.4,0,0.7-0.1,0.9-0.4c0.2-0.3,0.4-0.6,0.4-0.9c0-0.4-0.1-0.7-0.4-0.9C54.2,51,53.9,50.8,53.5,50.8z"/>
			<path class="st5" d="M53.5,48.1c0.5,0,1,0.1,1.5,0.3c0.5,0.2,0.9,0.5,1.2,0.9c0.3,0.4,0.6,0.8,0.8,1.3c0.2,0.5,0.3,1,0.3,1.5
				c0,0.5-0.1,1.1-0.3,1.6c-0.2,0.5-0.5,0.9-0.8,1.3c-0.3,0.4-0.8,0.6-1.2,0.8c-0.5,0.2-1,0.3-1.5,0.3s-1-0.1-1.5-0.3
				c-0.5-0.2-0.9-0.5-1.2-0.8c-0.3-0.4-0.6-0.8-0.8-1.3c-0.2-0.5-0.3-1-0.3-1.6c0-0.5,0.1-1.1,0.3-1.5c0.2-0.5,0.5-0.9,0.8-1.3
				c0.3-0.4,0.8-0.7,1.2-0.9C52.5,48.3,53,48.1,53.5,48.1 M53.5,53.7c0.4,0,0.8-0.1,1-0.4c0.3-0.3,0.4-0.6,0.4-1.1
				c0-0.4-0.1-0.8-0.4-1.1c-0.3-0.3-0.6-0.4-1-0.4s-0.8,0.1-1.1,0.4c-0.3,0.3-0.4,0.7-0.4,1.1c0,0.4,0.1,0.8,0.4,1.1
				C52.8,53.5,53.1,53.7,53.5,53.7 M53.5,47.7c-0.6,0-1.1,0.1-1.7,0.3c-0.5,0.2-1,0.6-1.4,1c-0.4,0.4-0.7,0.9-0.9,1.4
				c-0.2,0.5-0.3,1.1-0.3,1.7c0,0.6,0.1,1.2,0.3,1.7c0.2,0.5,0.5,1,0.9,1.4c0.4,0.4,0.8,0.7,1.4,0.9c0.5,0.2,1.1,0.3,1.7,0.3
				c0.6,0,1.1-0.1,1.7-0.3c0.5-0.2,1-0.5,1.3-0.9c0.4-0.4,0.7-0.9,0.9-1.4c0.2-0.5,0.3-1.1,0.3-1.7c0-0.6-0.1-1.2-0.3-1.7
				c-0.2-0.5-0.5-1-0.9-1.4c-0.4-0.4-0.8-0.7-1.4-1C54.7,47.9,54.1,47.7,53.5,47.7L53.5,47.7z M53.5,53.3c-0.3,0-0.6-0.1-0.8-0.3
				c-0.2-0.2-0.3-0.5-0.3-0.8c0-0.3,0.1-0.6,0.3-0.8c0.2-0.2,0.5-0.3,0.8-0.3c0.3,0,0.5,0.1,0.8,0.3c0.2,0.2,0.3,0.5,0.3,0.8
				c0,0.3-0.1,0.6-0.3,0.8C54.1,53.1,53.8,53.3,53.5,53.3L53.5,53.3z"/>
		</g>
	</g>
</g>
</svg>
