<?xml version="1.0" encoding="utf-8"?>
<!-- Generator: Adobe Illustrator 19.2.0, SVG Export Plug-In . SVG Version: 6.00 Build 0)  -->
<svg version="1.1" id="Calque_1" xmlns="http://www.w3.org/2000/svg" xmlns:xlink="http://www.w3.org/1999/xlink" x="0px" y="0px"
	 viewBox="0 0 212 212" style="enable-background:new 0 0 212 212;" xml:space="preserve">
<style type="text/css">
	.st0{fill:#FFFFFF;stroke:#FFFFFF;stroke-width:0.1507;stroke-miterlimit:4.5666;}
	.st1{fill:#FFFFFF;stroke:#FFFFFF;stroke-width:0.7;stroke-miterlimit:4.5666;}
	.st2{fill:#FFFFFF;stroke:#FFFFFF;stroke-width:1.2;stroke-miterlimit:4.5666;}
	.st3{fill:#FFFFFF;stroke:#FFFFFF;stroke-miterlimit:10;}
</style>
<g>
	<path class="st0" d="M110.4,152.4L55.2,103v47.9H39.6V65.7l55.2,50.5V67.4h15.6V152.4z"/>
	<polygon class="st1" points="160.4,84 160.4,90.6 115.9,90.6 115.9,100.6 170.2,100.6 170.2,79.3 	"/>
	<path class="st2" d="M115.7,129.2c0-3.4,0.6-6.6,2.1-9.4c1.5-3,3.4-5.3,6.2-7.5c2.6-1.9,5.3-3.4,8.5-4.5c3.2-1.1,6.6-1.5,10.4-1.5
		c4,0,7.7,0.6,11.1,1.7c3.4,1.1,6.2,2.8,8.5,4.7c2.3,1.9,4.3,4.5,5.5,7.2c1.3,2.8,1.9,6,1.9,9.2c0,3.4-0.6,6.4-2.1,9.2
		c-1.3,2.8-3.2,5.1-5.8,7.2c-2.3,2.1-5.3,3.6-8.5,4.7c-3.4,1.1-7,1.7-10.9,1.7c-3.6,0-7-0.4-10.4-1.5c-3.2-1.1-6.2-2.6-8.5-4.5
		c-2.8-2.1-4.9-4.7-6.2-7.5C116.3,135.5,115.7,132.6,115.7,129.2z M160.6,129.2c0-1.5-0.4-3-1.1-4.5c-0.6-1.5-1.7-3-3.2-4.3
		c-1.5-1.3-3.2-2.3-5.5-3c-2.3-0.9-4.9-1.3-8.1-1.3c-2.1,0-4.3,0.2-6.4,0.9c-2.1,0.4-4,1.3-5.8,2.3s-3,2.3-4.3,4
		c-1.1,1.7-1.7,3.6-1.7,5.8c0,1.5,0.4,3,1.1,4.7c0.9,1.5,1.9,3,3.4,4.3c1.5,1.3,3.4,2.1,5.5,3c2.1,0.6,4.9,1.1,7.7,1.1
		c2.3,0,4.9-0.2,7.2-0.9c2.3-0.6,4.5-1.5,6-2.8C159.2,136.2,160.6,133,160.6,129.2z"/>
	<g>
		<g>
			<path class="st3" d="M124,84.8c-1.3,0-2.3-0.2-3.4-0.6c-1.1-0.4-1.9-1.1-2.8-1.9c-0.9-0.9-1.5-1.7-1.9-2.8
				c-0.4-1.1-0.6-2.3-0.6-3.4c0-1.3,0.2-2.3,0.6-3.4c0.4-1.1,1.1-2.1,1.9-2.8c0.9-0.9,1.7-1.5,2.8-1.9c1.1-0.4,2.1-0.6,3.4-0.6
				s2.3,0.2,3.4,0.6c1.1,0.4,1.9,1.1,2.8,1.9c0.9,0.9,1.5,1.7,1.9,2.8c0.4,1.1,0.6,2.3,0.6,3.4c0,1.3-0.2,2.3-0.6,3.4
				c-0.4,1.1-1.1,2.1-1.9,2.8c-0.9,0.9-1.7,1.5-2.8,1.9C126.3,84.4,125.3,84.8,124,84.8z M124,73.1c-0.9,0-1.5,0.2-1.9,0.9
				c-0.6,0.6-0.9,1.3-0.9,1.9c0,0.6,0.2,1.5,0.9,1.9c0.6,0.6,1.3,0.9,1.9,0.9c0.9,0,1.3-0.2,1.9-0.9c0.6-0.6,0.9-1.3,0.9-1.9
				c0-0.6-0.2-1.5-0.9-1.9C125.5,73.3,124.9,73.1,124,73.1z"/>
			<path class="st3" d="M124,67.4c1.1,0,2.1,0.2,3.2,0.6c1.1,0.4,1.9,1.1,2.6,1.9s1.3,1.7,1.7,2.8c0.4,1.1,0.6,2.1,0.6,3.2
				c0,1.1-0.2,2.3-0.6,3.4c-0.4,1.1-1.1,1.9-1.7,2.8c-0.6,0.9-1.7,1.3-2.6,1.7c-1.1,0.4-2.1,0.6-3.2,0.6s-2.1-0.2-3.2-0.6
				c-1.1-0.4-1.9-1.1-2.6-1.7c-0.6-0.9-1.3-1.7-1.7-2.8s-0.6-2.1-0.6-3.4c0-1.1,0.2-2.3,0.6-3.2c0.4-1.1,1.1-1.9,1.7-2.8
				c0.6-0.9,1.7-1.5,2.6-1.9C121.9,67.6,122.9,67.4,124,67.4 M124,79.1c0.9,0,1.7-0.2,2.1-0.9c0.6-0.6,0.9-1.3,0.9-2.3
				c0-0.9-0.2-1.7-0.9-2.3c-0.6-0.6-1.3-0.9-2.1-0.9c-0.9,0-1.7,0.2-2.3,0.9c-0.6,0.6-0.9,1.5-0.9,2.3c0,0.9,0.2,1.7,0.9,2.3
				C122.5,78.7,123.2,79.1,124,79.1 M124,66.5c-1.3,0-2.3,0.2-3.6,0.6c-1.1,0.4-2.1,1.3-3,2.1c-0.9,0.9-1.5,1.9-1.9,3
				c-0.4,1.1-0.6,2.3-0.6,3.6s0.2,2.6,0.6,3.6c0.4,1.1,1.1,2.1,1.9,3c0.9,0.9,1.7,1.5,3,1.9c1.1,0.4,2.3,0.6,3.6,0.6
				c1.3,0,2.3-0.2,3.6-0.6c1.1-0.4,2.1-1.1,2.8-1.9c0.9-0.9,1.5-1.9,1.9-3c0.4-1.1,0.6-2.3,0.6-3.6s-0.2-2.6-0.6-3.6
				c-0.4-1.1-1.1-2.1-1.9-3c-0.9-0.9-1.7-1.5-3-2.1C126.6,66.7,125.3,66.5,124,66.5L124,66.5z M124,78.2c-0.6,0-1.3-0.2-1.7-0.6
				c-0.4-0.4-0.6-1.1-0.6-1.7c0-0.6,0.2-1.3,0.6-1.7c0.4-0.4,1.1-0.6,1.7-0.6c0.6,0,1.1,0.2,1.7,0.6c0.4,0.4,0.6,1.1,0.6,1.7
				c0,0.6-0.2,1.3-0.6,1.7S124.6,78.2,124,78.2L124,78.2z"/>
		</g>
	</g>
</g>
</svg>
